HIERARCHY
ROOT Hips
{
    OFFSET 0.000000 0.000000 0.000000
    CHANNELS 6 Xposition Yposition Zposition Zrotation Xrotation Yrotation
    JOINT Spine
    {
        OFFSET -0.000000 14.517291 0.000000
        CHANNELS 3 Zrotation Xrotation Yrotation
        JOINT Spine1
        {
            OFFSET -0.000000 37.558300 0.000000
            CHANNELS 3 Zrotation Xrotation Yrotation
            JOINT Neck
            {
                OFFSET -0.000000 37.404057 3.400369
                CHANNELS 3 Zrotation Xrotation Yrotation
                JOINT Head
                {
                    OFFSET -0.000000 24.785618 -3.540803
                    CHANNELS 3 Zrotation Xrotation Yrotation
                    End Site
                    {
                        OFFSET -0.000000 35.408028 0.000000
                    }
                }
            }
            JOINT LeftShoulder
            {
                OFFSET 6.992933 33.973492 -0.192664
                CHANNELS 3 Zrotation Xrotation Yrotation
                JOINT LeftArm
                {
                    OFFSET 21.527611 0.000000 0.000000
                    CHANNELS 3 Zrotation Xrotation Yrotation
                    JOINT LeftForeArm
                    {
                        OFFSET 56.353916 0.000000 0.000000
                        CHANNELS 3 Zrotation Xrotation Yrotation
                        JOINT LeftHand
                        {
                            OFFSET 47.774071 0.000000 0.000000
                            CHANNELS 3 Zrotation Xrotation Yrotation
                            End Site
                            {
                                OFFSET 26.556021 0.000000 0.000000
                            }
                        }
                    }
                }
            }
            JOINT RightShoulder
            {
                OFFSET -7.065357 33.973492 -0.192664
                CHANNELS 3 Zrotation Xrotation Yrotation
                JOINT RightArm
                {
                    OFFSET -21.527611 0.000000 0.000000
                    CHANNELS 3 Zrotation Xrotation Yrotation
                    JOINT RightForeArm
                    {
                        OFFSET -56.353916 0.000000 0.000000
                        CHANNELS 3 Zrotation Xrotation Yrotation
                        JOINT RightHand
                        {
                            OFFSET -47.774071 0.000000 0.000000
                            CHANNELS 3 Zrotation Xrotation Yrotation
                            End Site
                            {
                                OFFSET -26.556021 0.000000 0.000000
                            }
                        }
                    }
                }
            }
        }
    }
    JOINT LeftUpLeg
    {
        OFFSET 17.704014 0.000000 0.000000
        CHANNELS 3 Zrotation Xrotation Yrotation
        JOINT LeftLeg
        {
            OFFSET -0.000000 -81.181816 0.000000
            CHANNELS 3 Zrotation Xrotation Yrotation
            JOINT LeftFoot
            {
                OFFSET -0.000000 -62.821102 0.000000
                CHANNELS 3 Zrotation Xrotation Yrotation
                JOINT LeftToeBase
                {
                    OFFSET -0.000000 -11.507608 26.556021
                    CHANNELS 3 Zrotation Xrotation Yrotation
                    End Site
                    {
                        OFFSET -0.000000 0.000000 7.081605
                    }
                }
            }
        }
    }
    JOINT RightUpLeg
    {
        OFFSET -17.704014 0.000000 0.000000
        CHANNELS 3 Zrotation Xrotation Yrotation
        JOINT RightLeg
        {
            OFFSET -0.000000 -81.181816 0.000000
            CHANNELS 3 Zrotation Xrotation Yrotation
            JOINT RightFoot
            {
                OFFSET -0.000000 -62.821102 0.000000
                CHANNELS 3 Zrotation Xrotation Yrotation
                JOINT RightToeBase
                {
                    OFFSET -0.000000 -11.507608 26.556021
                    CHANNELS 3 Zrotation Xrotation Yrotation
                    End Site
                    {
                        OFFSET -0.000000 0.000000 7.081605
                    }
                }
            }
        }
    }
}
MOTION
Frames:    14
Frame Time:    0.008333
26.149733    157.099884    -15.034613    1.909188    8.750180    -50.039368    0.177581    0.043943    0.488686    4.337632    0.727493    0.136050    16.652719    -3.670696    12.345217    -6.314701    5.320060    9.210860    13.859666    -2.231031    -19.083406    -8.771294    -22.508307    -43.792503    9.900596    -37.682495    -19.909998    -22.314558    -28.302055    -45.352165    -6.666029    1.473516    -1.856160    35.394909    4.431238    75.878021    7.664898    -1.967979    105.485435    2.487524    -11.564524    20.111773    24.132830    -27.691311    6.234224    -22.485703    37.058979    -0.113299    2.595648    -12.979161    41.578712    0.000000    0.000000    0.000000    -21.087523    -10.675474    -4.913508    4.999061    22.058102    -8.425825    14.053164    1.115190    -13.554043    0.000000    0.000000    0.000000    
26.415140    157.339890    -14.885532    1.971978    8.735647    -50.192852    0.187957    0.301795    0.617130    4.296803    0.399245    0.191916    16.621449    -3.955256    12.344898    -6.253351    5.640073    9.197638    13.907001    -2.265649    -18.841560    -8.936264    -22.325272    -43.957001    9.893553    -37.659874    -19.976738    -22.311708    -28.282957    -45.307487    -6.746941    1.465748    -2.243451    35.343513    4.600631    76.160828    7.597923    -2.027120    105.537575    2.559533    -11.533287    20.054457    23.860264    -27.558928    6.152956    -22.191998    36.719296    -0.223504    2.508615    -12.800561    41.673843    0.000000    0.000000    0.000000    -20.699486    -10.703094    -5.055956    5.105204    23.090971    -8.197972    13.833985    0.533838    -13.225333    0.000000    0.000000    0.000000    
26.658833    157.572556    -14.761877    2.012275    8.702044    -50.331684    0.220386    0.095533    0.588725    4.250245    0.532380    0.177323    16.643110    -3.482857    12.374414    -6.386467    5.346986    9.265589    13.714127    -2.156215    -19.082691    -8.652084    -22.306404    -43.464287    9.793320    -37.633015    -20.006887    -22.289593    -28.267090    -45.345901    -6.784245    1.515455    -1.795186    35.327644    4.402526    75.955872    7.577245    -2.040473    105.438148    2.622129    -11.487409    20.201380    23.600058    -27.405857    6.085577    -21.901339    36.392555    -0.332635    2.402863    -12.622267    41.751225    0.000000    0.000000    0.000000    -20.309042    -10.675299    -5.285402    5.174613    24.063604    -7.980548    13.785631    -0.089416    -12.863531    0.000000    0.000000    0.000000    
26.894760    157.794434    -14.637802    2.065687    8.662354    -50.460209    0.218716    0.115634    0.631490    4.242754    0.453773    0.194754    16.599083    -3.414601    12.397533    -6.364519    5.363759    9.310898    13.640619    -2.109853    -19.064348    -8.638742    -22.239969    -43.345757    9.750038    -37.646629    -20.056486    -22.352777    -28.257280    -45.363091    -6.849353    1.497447    -1.792611    35.331715    4.376441    75.978813    7.572174    -1.998836    105.438599    2.601678    -11.443712    20.193863    23.338791    -27.265631    5.939334    -21.688160    36.044773    -0.358846    2.294837    -12.441098    41.831165    0.000000    0.000000    0.000000    -19.966845    -10.627557    -5.595352    5.227308    24.997837    -7.650776    13.946002    -0.798826    -12.516910    0.000000    0.000000    0.000000    
27.101057    157.995514    -14.532200    2.100034    8.634701    -50.572605    0.259275    0.131771    0.656230    4.168332    0.392479    0.205596    16.673729    -3.395064    12.438774    -6.429149    5.442415    9.341463    13.636271    -2.069829    -19.014938    -8.667590    -22.190252    -43.270363    9.750277    -37.637196    -20.077255    -22.356829    -28.248825    -45.337627    -6.838234    1.463146    -1.797186    35.311443    4.347101    75.996048    7.582630    -1.945147    105.455627    2.616757    -11.405519    20.170517    23.124689    -27.131119    5.772869    -21.526674    35.695267    -0.295424    2.172826    -12.272210    41.878487    0.000000    0.000000    0.000000    -19.603189    -10.537880    -5.923286    5.255594    25.879194    -7.432947    14.216166    -1.525545    -12.019927    0.000000    0.000000    0.000000    
27.301970    158.171600    -14.442471    2.129107    8.623620    -50.710026    0.328604    0.128185    0.700516    4.096431    0.337081    0.222571    16.709263    -3.375372    12.457513    -6.447332    5.536176    9.361055    13.596212    -2.022769    -19.001577    -8.674072    -22.219896    -43.157646    9.655890    -37.597603    -20.139587    -22.368889    -28.215340    -45.312683    -6.869289    1.442859    -1.792396    35.314781    4.325326    76.007584    7.555952    -1.951641    105.465027    2.660329    -11.370411    20.211126    22.960077    -27.005432    5.664554    -21.363192    35.395557    -0.292684    2.046477    -12.149888    41.948257    0.000000    0.000000    0.000000    -19.251472    -10.475327    -6.206936    5.341568    26.744719    -7.178668    14.357764    -2.211696    -11.562067    0.000000    0.000000    0.000000    
27.487040    158.328522    -14.371729    2.148180    8.588926    -50.850166    0.363002    0.140249    0.738119    4.083398    0.297113    0.236564    16.659607    -3.356516    12.473331    -6.396918    5.591280    9.397226    13.509350    -2.015280    -18.964212    -8.665633    -22.142487    -43.049850    9.668704    -37.643444    -20.169077    -22.415417    -28.244062    -45.313068    -6.954195    1.430897    -1.809690    35.305527    4.333110    76.067787    7.549768    -2.011346    105.455383    2.673847    -11.416682    20.213314    22.802092    -26.859949    5.548714    -21.232130    35.098537    -0.285167    1.929154    -12.042438    42.043579    0.000000    0.000000    0.000000    -18.920696    -10.380986    -6.505576    5.390946    27.548094    -6.955997    14.580980    -2.795960    -11.043962    0.000000    0.000000    0.000000    
27.657927    158.461624    -14.316533    2.185460    8.545550    -50.982254    0.384898    0.128418    0.765630    4.034684    0.261586    0.247263    16.737778    -3.307501    12.512609    -6.463281    5.637448    9.427698    13.474969    -1.975982    -18.927975    -8.701604    -22.115021    -42.972149    9.685214    -37.678989    -20.212612    -22.357834    -28.312225    -45.252399    -6.958853    1.415273    -1.814367    35.293175    4.317011    76.090378    7.522120    -2.022204    105.442314    2.686682    -11.385299    20.274050    22.638004    -26.734261    5.397227    -21.134745    34.811943    -0.267409    1.829014    -11.953223    42.162899    0.000000    0.000000    0.000000    -18.622976    -10.293633    -6.811981    5.391569    28.330521    -6.629643    14.913892    -3.260046    -10.641915    0.000000    0.000000    0.000000    
27.833954    158.589737    -14.272732    2.240865    8.491931    -51.127918    0.382314    0.107579    0.832011    4.018274    0.253127    0.269741    16.743807    -3.313475    12.535654    -6.463077    5.697423    9.453178    13.423896    -1.983548    -18.898396    -8.782978    -22.149963    -42.932968    9.641352    -37.682415    -20.257065    -22.381252    -28.306204    -45.273624    -7.023079    1.371043    -1.903801    35.289894    4.349877    76.157562    7.496274    -2.091987    105.447250    2.680689    -11.424111    20.173719    22.463190    -26.608360    5.231494    -21.057644    34.504284    -0.198116    1.726109    -11.854674    42.264008    0.000000    0.000000    0.000000    -18.356964    -10.222055    -7.072246    5.397669    29.050056    -6.309611    15.060968    -3.605890    -10.199203    0.000000    0.000000    0.000000    
27.987375    158.703552    -14.242252    2.288008    8.422112    -51.272247    0.401751    0.070783    0.859715    3.953975    0.285659    0.277975    16.706448    -3.377332    12.573436    -6.351617    5.837289    9.507945    13.389164    -1.989999    -18.815739    -8.843286    -22.141100    -42.896084    9.661905    -37.689018    -20.268467    -22.385000    -28.312878    -45.250031    -7.044600    1.347329    -1.924724    35.293732    4.325174    76.225029    7.507813    -2.105523    105.431389    2.693319    -11.447117    20.185699    22.284811    -26.471714    5.086335    -20.952496    34.222687    -0.172760    1.634364    -11.760309    42.368065    0.000000    0.000000    0.000000    -18.121456    -10.119011    -7.309411    5.450002    29.719252    -6.162110    15.180825    -3.886058    -9.657420    0.000000    0.000000    0.000000    
28.131956    158.797318    -14.228155    2.352297    8.352455    -51.406181    0.427461    -0.015785    0.877730    3.879169    0.350024    0.281947    16.622480    -3.353312    12.578709    -6.221673    5.849051    9.544783    13.334567    -1.975492    -18.778273    -8.897369    -22.195108    -42.841461    9.650756    -37.720634    -20.284204    -22.338144    -28.375170    -45.208160    -7.095380    1.350634    -1.937699    35.297596    4.326997    76.292007    7.492033    -2.201275    105.414314    2.683836    -11.519272    20.190697    22.097404    -26.372587    4.961645    -20.829050    33.992039    -0.175012    1.552476    -11.684038    42.490520    0.000000    0.000000    0.000000    -17.915096    -10.024161    -7.468060    5.541263    30.345240    -5.976741    15.483377    -4.190813    -9.439385    0.000000    0.000000    0.000000    
28.279282    158.875656    -14.233759    2.427122    8.271297    -51.549221    0.453706    -0.092747    0.889258    3.783994    0.406846    0.284015    16.614420    -3.313963    12.605844    -6.201299    5.847390    9.582132    13.284528    -1.951527    -18.720705    -8.923638    -22.213030    -42.778034    9.688630    -37.780880    -20.283346    -22.390257    -28.419579    -45.192062    -7.139510    1.320119    -1.915306    35.342709    4.340322    76.325867    7.484971    -2.253661    105.378845    2.735513    -11.546113    20.186960    21.891476    -26.295572    4.827740    -20.681213    33.798550    -0.178978    1.453254    -11.614079    42.595707    0.000000    0.000000    0.000000    -17.746920    -9.942069    -7.592030    5.707635    30.922546    -5.939220    15.735579    -4.442816    -9.365396    0.000000    0.000000    0.000000    
28.403389    158.940567    -14.263484    2.490361    8.188833    -51.665417    0.445311    -0.157665    0.898288    3.756584    0.426809    0.286445    16.577286    -3.245152    12.616295    -6.172645    5.861223    9.613318    13.202632    -1.914434    -18.704121    -8.963483    -22.228506    -42.705505    9.696044    -37.852810    -20.315182    -22.373102    -28.507772    -45.166458    -7.188213    1.327354    -1.908699    35.357258    4.358086    76.366539    7.464511    -2.339684    105.344009    2.758813    -11.593474    20.195696    21.695238    -26.227787    4.617438    -20.580336    33.588806    -0.088372    1.377528    -11.524906    42.775646    0.000000    0.000000    0.000000    -17.587013    -9.829995    -7.712817    5.881418    31.449810    -5.878322    16.084702    -4.740626    -9.432991    0.000000    0.000000    0.000000    
28.514565    158.991455    -14.319163    2.548295    8.099783    -51.782764    0.439245    -0.242481    0.882260    3.626342    0.476519    0.278295    16.725088    -3.101069    12.674883    -6.225001    5.818980    9.662029    13.330035    -1.823597    -18.620014    -9.145281    -22.333334    -42.733452    9.699203    -37.902718    -20.347939    -22.293257    -28.608721    -45.079124    -7.073958    1.363080    -1.809512    35.273361    4.299936    76.335022    7.452203    -2.474393    105.362907    2.732594    -11.717675    20.173420    21.499239    -26.176960    4.474717    -20.420559    33.453934    -0.085800    1.273778    -11.482224    42.795143    0.000000    0.000000    0.000000    -17.444601    -9.692277    -7.792416    6.128482    31.868296    -6.046069    16.421228    -4.948332    -9.498930    0.000000    0.000000    0.000000    
